<svg width="24" height="24" viewBox="0 0 24 24" fill="none" xmlns="http://www.w3.org/2000/svg">
<path d="M2 12C2 17.523 6.477 22 12 22C17.523 22 22 17.523 22 12C22 6.477 17.523 2 12 2C6.477 2 2 6.477 2 12Z" stroke="#FF711F" stroke-width="1.5" stroke-linecap="round" stroke-linejoin="round"/>
<path d="M2.62988 15.4998H21.3699M2.62988 8.4998H21.3699M11.9999 2.0498C11.9999 2.0498 15.9999 5.9998 15.9999 11.9998C15.9999 17.9998 11.9999 21.9498 11.9999 21.9498C11.9999 21.9498 7.99988 17.9998 7.99988 11.9998C7.99988 5.9998 11.9999 2.0498 11.9999 2.0498Z" stroke="#FF711F" stroke-width="1.5" stroke-linecap="round" stroke-linejoin="round"/>
</svg>
