<svg viewBox="0 0 16 19" fill="inherit" xmlns="http://www.w3.org/2000/svg">
  <path d="M7.99961 10.292C9.32509 10.292 10.3996 9.22867 10.3996 7.91699C10.3996 6.60532 9.32509 5.54199 7.99961 5.54199C6.67413 5.54199 5.59961 6.60532 5.59961 7.91699C5.59961 9.22867 6.67413 10.292 7.99961 10.292Z" stroke="inherit" stroke-width="1.2" stroke-linecap="round" stroke-linejoin="round"/>
  <path d="M7.99961 1.5835C6.30222 1.5835 4.67436 2.25076 3.47413 3.43849C2.27389 4.62622 1.59961 6.23712 1.59961 7.91683C1.59961 9.41466 1.92121 10.3947 2.79961 11.4793L7.99961 17.4168L13.1996 11.4793C14.078 10.3947 14.3996 9.41466 14.3996 7.91683C14.3996 6.23712 13.7253 4.62622 12.5251 3.43849C11.3249 2.25076 9.697 1.5835 7.99961 1.5835V1.5835Z" stroke="inherit" stroke-width="1.2" stroke-linecap="round" stroke-linejoin="round"/>
</svg>
