<svg viewBox="0 0 22 22" fill="none" xmlns="http://www.w3.org/2000/svg">
<g opacity="0.25">
<path d="M6.72968 12.8551C6.58145 12.7889 6.42825 12.7433 6.27262 12.7187C5.04838 12.5257 3.9351 13.6544 3.78603 15.2397L3.30987 20.3037H18.69L18.2138 15.2397C18.1949 15.0382 18.1596 14.8398 18.1086 14.6478C17.7071 13.1378 16.4363 12.3351 15.2702 12.8551C13.9363 13.4498 12.511 13.7458 10.9999 13.7458C9.48883 13.7458 8.06352 13.4498 6.72968 12.8551ZM10.9999 12.0496C12.3688 12.0496 13.6501 11.7834 14.8437 11.2512C16.6938 10.4263 18.7101 11.6997 19.3471 14.0956C19.4281 14.4002 19.484 14.7149 19.5141 15.0347L19.9903 20.0987C20.0777 21.0287 19.5664 21.8743 18.8483 21.9876C18.7958 21.9958 18.7429 22 18.69 22H3.30987C2.58645 22 2 21.2406 2 20.3037C2 20.2352 2.00321 20.1667 2.0096 20.0987L2.48576 15.0347C2.72228 12.5194 4.48859 10.7286 6.43094 11.0349C6.67786 11.0738 6.92093 11.1463 7.15612 11.2512C8.34981 11.7834 9.63108 12.0496 10.9999 12.0496Z" fill="#100E0E"/>
<path d="M11 11C8.34213 11 6.1875 8.84537 6.1875 6.1875C6.1875 3.52963 8.34213 1.375 11 1.375C13.6579 1.375 15.8125 3.52963 15.8125 6.1875C15.8125 8.84537 13.6579 11 11 11ZM11 9.625C12.8985 9.625 14.4375 8.08598 14.4375 6.1875C14.4375 4.28902 12.8985 2.75 11 2.75C9.10152 2.75 7.5625 4.28902 7.5625 6.1875C7.5625 8.08598 9.10152 9.625 11 9.625Z" fill="#100E0E"/>
</g>
</svg>
